<?xml version="1.0" encoding="UTF-8" standalone="no"?>
<svg width="434px" height="386px" viewBox="0 0 434 386" version="1.1" xmlns="http://www.w3.org/2000/svg" xmlns:xlink="http://www.w3.org/1999/xlink" xmlns:sketch="http://www.bohemiancoding.com/sketch/ns">
    <!-- Generator: Sketch 3.1 (8751) - http://www.bohemiancoding.com/sketch -->
    <title>Group</title>
    <desc>Created with Sketch.</desc>
    <defs></defs>
    <g id="Page-1" stroke="none" stroke-width="1" fill="none" fill-rule="evenodd" sketch:type="MSPage">
        <g id="keys-stroked" sketch:type="MSLayerGroup" transform="translate(-3.000000, 1.000000)">
            <g id="Group" sketch:type="MSShapeGroup">
                <path d="M19.2555731,339.834004 C17.1605721,334.978244 16,329.624797 16,324.000203 L16,183.999797 C16,161.910244 33.9122202,144 56.0080635,144 L358.450019,144 L277.043631,191 L251,191 L251,206.036297 L236,214.696551 L236,191 L204,191 L204,223 L221.618005,223 L193.905192,239 L174,239 L174,250.492268 L159,259.152522 L159,239 L127,239 L127,271 L138.479566,271 L112.498804,286 L110,286 L110,287.442685 L95,296.102939 L95,286 L63,286 L63,314.578148 L19.2555731,339.834004 Z M73.1449748,364 L384.991936,364 C407.08778,364 425,346.089756 425,324.000203 L425,183.999797 C425,176.697246 423.043684,169.851751 419.62597,163.959104 L372.789764,191 L377,191 L377,223 L345,223 L345,207.044428 L330,215.704682 L330,223 L317.364139,223 L289.651326,239 L300,239 L300,271 L268,271 L268,251.500399 L253,260.160653 L253,271 L234.2257,271 L208.244938,286 L330,286 L330,318 L152.819312,318 L73.1449748,364 Z M63,191 L63,223 L95,223 L95,191 L63,191 Z M110,191 L110,223 L142,223 L142,191 L110,191 Z M157,191 L157,223 L189,223 L189,191 L157,191 Z M80,239 L80,271 L112,271 L112,239 L80,239 Z M315,239 L315,271 L347,271 L347,239 L315,239 Z M345,286 L345,318 L377,318 L377,286 L345,286 Z" id="Rectangle-3" fill="#333333"></path>
                <rect id="Rectangle-4" fill="#333333" transform="translate(219.710938, 251.339844) rotate(60.000000) translate(-219.710938, -251.339844) " x="203.710938" y="7.07398072" width="32" height="488.531726" rx="8"></rect>
                <path d="M220.335938,152.384766 C220.335938,152.384766 218.885932,105.513672 239.974609,91.8027344 C261.063287,78.0917969 288.773441,83.2675781 305.873051,72.9453125 C320.769535,64 330.705081,53.3066406 330.705081,7.47070312" id="Path-3" stroke="#333333" stroke-width="24"></path>
                <path d="M318.70697,7.49609375 C318.70697,7.49609375 319.606506,-0.354492188 330.68631,-0.354492188 C341.766113,-0.354492187 342.701538,7.49609375 342.701538,7.49609375 C342.701538,7.49609375 341.771296,8.13337317 341.29406,8.45201288 C337.972,10.6700756 331.327881,15.1062012 331.327881,15.1062012 L318.70697,7.49609375 Z" id="Path-4" fill="#333333"></path>
            </g>
        </g>
    </g>
</svg>